<?xml version="1.0" encoding="UTF-8" standalone="no"?>
<svg
   width="512"
   height="512"
   viewBox="0 0 384.0001 384.0001"
   version="1.1"
   id="svg1"
   sodipodi:docname="logo.svg"
   inkscape:version="1.4 (1:1.4+202410151213+e7c3feb100)"
   xml:space="preserve"
   inkscape:export-filename="logo.png"
   inkscape:export-xdpi="96"
   inkscape:export-ydpi="96"
   xmlns:inkscape="http://www.inkscape.org/namespaces/inkscape"
   xmlns:sodipodi="http://sodipodi.sourceforge.net/DTD/sodipodi-0.dtd"
   xmlns="http://www.w3.org/2000/svg"
   xmlns:svg="http://www.w3.org/2000/svg"
   xmlns:rdf="http://www.w3.org/1999/02/22-rdf-syntax-ns#"
   xmlns:cc="http://creativecommons.org/ns#"
   xmlns:dc="http://purl.org/dc/elements/1.1/"><defs
     id="defs1" /><sodipodi:namedview
     id="namedview1"
     pagecolor="#ffffff"
     bordercolor="#666666"
     borderopacity="1.0"
     inkscape:showpageshadow="2"
     inkscape:pageopacity="0.0"
     inkscape:pagecheckerboard="0"
     inkscape:deskcolor="#d1d1d1"
     inkscape:document-units="mm"
     inkscape:zoom="0.70710678"
     inkscape:cx="542.3509"
     inkscape:cy="174.65537"
     inkscape:window-width="2502"
     inkscape:window-height="1376"
     inkscape:window-x="0"
     inkscape:window-y="0"
     inkscape:window-maximized="1"
     inkscape:current-layer="svg1" /><title
     id="title1">Risorsa 27</title><path
     style="fill:#00aad4;stroke-width:5.66929276;stroke:#000000;stroke-dasharray:none"
     d="M 246.67406,92.351026 C 222.24298,67.931513 198.93339,44.652851 191.99615,18.398822 185.05856,44.652851 161.74523,67.931513 137.31823,92.351026 100.67753,128.96859 59.134617,170.46905 59.134617,232.71259 c 0,73.27761 59.599573,132.88871 132.861533,132.88871 73.27351,0 132.86525,-59.60703 132.86932,-132.88871 0,-62.23947 -41.53951,-103.744 -78.19141,-140.361564"
     id="path1"
     inkscape:label="drupal-icon" /><metadata
     id="metadata1"><rdf:RDF><cc:Work
         rdf:about=""><dc:title>Risorsa 27</dc:title></cc:Work></rdf:RDF></metadata><path
     id="path4"
     style="fill:#87cdde;stroke-width:1"
     d="M 191.62115,26.742574 C 180.50465,53.560843 159.44674,74.447922 138.81848,95.069852 100.58404,132.71867 61.377385,174.59605 62.134293,233.46235 63.030656,303.17434 116.95263,362.60192 191.99583,362.78942 98.375777,300.67653 122.96101,184.82972 145.44444,148.38862 160.76196,123.562 195.83,65.496124 191.62115,26.742574 Z"
     sodipodi:nodetypes="ccscsc"
     inkscape:label="navigation-bar" /><path
     id="path1-5"
     style="fill:#f9f9f9;stroke:#000000;stroke-width:5.66929;stroke-dasharray:none"
     d="m 200.52335,160.32871 c -4.7365,0.0731 -9.45167,1.00015 -13.88097,2.67417 -0.73859,0.27775 -1.72365,0.68211 -2.53992,1.05578 -8.98339,4.04179 -16.40224,11.40559 -20.52215,20.35246 -0.34575,0.75175 -0.78309,1.75965 -1.11564,2.63118 -0.90689,2.34006 -1.63151,4.93026 -2.06869,7.2918 -1.52522,8.16515 -0.53744,16.76008 2.74274,24.38676 0.39499,0.99804 0.78946,1.99629 1.18535,2.99396 -13.66479,11.81911 -27.34349,23.62238 -40.98101,35.47151 -3.25043,3.37195 -4.94892,8.201 -4.43301,12.86521 0.42779,4.82269 3.34753,9.45195 7.50375,12.02372 2.16873,1.34862 4.66398,2.18413 7.21255,2.37862 0.3484,0.0295 1.07995,0.0593 1.57754,0.0438 4.59072,-0.0616 9.10438,-2.17684 12.03462,-5.72206 8.86619,-10.2998 17.77295,-20.56701 26.65265,-30.8562 2.59697,-3.00615 5.19601,-6.01051 7.7916,-9.01786 6.19126,3.01718 13.02396,4.88656 19.94389,4.78653 11.6322,-0.0412 23.15562,-5.21814 30.83756,-13.9681 1.75794,-1.96407 3.41262,-4.25227 4.70131,-6.4205 2.67029,-4.49223 4.48551,-9.49141 5.31655,-14.65089 0.19491,-1.24483 0.36158,-2.72578 0.44395,-4.07223 0.13281,-2.20111 0.10024,-4.41156 -0.10009,-6.6076 -0.0377,-0.39758 -0.12975,-1.15059 -0.19996,-1.68186 -0.49645,-3.46913 -1.35503,-6.91192 -2.76947,-10.12294 -0.46079,-0.58026 -1.18864,-0.17715 -1.56303,0.27256 -8.99791,8.28634 -17.98116,16.59039 -26.97443,24.88249 -5.3032,-1.1352 -10.60549,-2.27465 -15.90855,-3.41044 -1.13579,-5.30307 -2.27525,-10.60535 -3.41045,-15.90855 8.468,-9.18657 16.9705,-18.34386 25.39239,-27.57133 0.27504,-0.64304 -0.32791,-1.2135 -0.93771,-1.27111 -5.0588,-1.96916 -10.50327,-2.94119 -15.93137,-2.8289 z"
     inkscape:label="wrench" /></svg>
